<?xml version="1.0" standalone="no"?><!DOCTYPE svg PUBLIC "-//W3C//DTD SVG 1.1//EN" "http://www.w3.org/Graphics/SVG/1.1/DTD/svg11.dtd"><svg t="1521010090331" class="icon" style="" viewBox="0 0 1024 1024" version="1.1" xmlns="http://www.w3.org/2000/svg" p-id="2061" xmlns:xlink="http://www.w3.org/1999/xlink" width="200" height="200"><defs><style type="text/css"></style></defs><path d="M989.566624 873.548239C944.778757 812.352373 717.341705 837.746382 682.620444 767.820437c-68.902223-138.629111-40.778286-112.865424 4.094891-147.217007 42.114813-32.218827 40.124241-117.187809 65.887928-147.359191 26.133365-30.62637 38.190543-118.410588 28.351431-151.454081-13.024027-43.821017-33.015056-19.991029-36.057787-53.062958-6.512014-71.319346 11.488443-129.984342-28.664235-164.677166C677.416521 70.523117 628.818131 1.30809 549.763992 0.312804 522.20879 0 490.956812 8.218218 455.126519 28.749545c-170.620444-18.199514-169.511412 168.658309-176.023426 239.977655-3.042731 33.071929-23.03376 9.241941-36.057787 53.062958-9.839112 33.043493 2.218066 120.827711 28.351431 151.454081 25.763687 30.171382 23.773115 115.140363 65.859491 147.359191 44.901614 34.351583 73.02555 8.587896 4.123328 147.27388-34.72126 69.897509-262.158313 44.475063-306.94618 105.670929C0.138667 920.298241 0.167103 1023.722667 0.138667 1023.722667h1023.722666s0-103.424426-34.294709-150.174428z" p-id="2062"></path></svg>