<?xml version="1.0" standalone="no"?><!DOCTYPE svg PUBLIC "-//W3C//DTD SVG 1.1//EN" "http://www.w3.org/Graphics/SVG/1.1/DTD/svg11.dtd"><svg t="1521010082391" class="icon" style="" viewBox="0 0 1024 1024" version="1.1" xmlns="http://www.w3.org/2000/svg" p-id="1947" xmlns:xlink="http://www.w3.org/1999/xlink" width="200" height="200"><defs><style type="text/css"></style></defs><path d="M896 409.6h-128v-153.6c0-141.1584-114.8416-256-256-256S256 114.8416 256 256v153.6H128c-14.08 0-25.6 11.52-25.6 25.6v179.2c0 226.2272 183.3984 409.6 409.6 409.6 226.2272 0 409.6-183.3728 409.6-409.6v-179.2c0-14.08-11.52-25.6-25.6-25.6zM512 742.4a76.8 76.8 0 1 1 0-153.6 76.8 76.8 0 0 1 0 153.6z m-153.6-332.8v-153.6c0-84.7104 68.8896-153.6 153.6-153.6s153.6 68.8896 153.6 153.6v153.6H358.4z" p-id="1948"></path></svg>